<svg id="Capa_1" data-name="Capa 1" xmlns="http://www.w3.org/2000/svg" viewBox="0 0 1164 112.25"><defs><style>.cls-1{fill:#0f77a5;stroke:#000;stroke-miterlimit:10;}</style></defs><title>graphic</title><path d="M331.38,22.21a350.06,350.06,0,0,0-81.83,2q-11.55,1.65-23,4.08c-1.51.32-1.34,2.48,0,2.89,18.73,5.73,38.49,6.36,57.89,7.58C303.26,40,322.82,41.54,340,49.88a65.8,65.8,0,0,1,12.07,7.36c1.58,1.26,3.55,3.11,2.81,5.34-.61,1.82-2.59,2.94-4.22,3.71a50.5,50.5,0,0,1-7.22,2.4q-4.2,1.25-8.43,2.38-8.47,2.27-17,4.06A323,323,0,0,1,248.5,82a321.69,321.69,0,0,1-35-2.23c-9.59-1.14-19.77-2.62-28-8a28,28,0,0,1-5.42-4.59c-1.47-1.63-2.92-3.77-2.28-6.06,1-3.63,5.91-5.08,9.14-5.73a109.14,109.14,0,0,1,15.63-1.64c5.36-.29,10.73-.32,16.09-.14,21.68.71,43.07,4.82,64.24,9.29,21.34,4.5,42.63,9.44,64.31,12a219.87,219.87,0,0,0,31.93,1.7A133.3,133.3,0,0,0,408.82,73c15.66-4,32.7-12.72,39.89-28a35.74,35.74,0,0,0,3.15-11.36c.2-1.92-2.8-1.91-3,0-1.9,17.6-18.07,28.8-33.5,34.27-9.23,3.27-18.9,4.73-28.64,5.41a200.36,200.36,0,0,1-32.86-.62c-22.24-2.12-44.07-7.1-65.88-11.75s-43.55-9.05-65.75-10.16A179,179,0,0,0,189.42,52c-4.21.57-8.6,1.51-11.9,4.37-3.51,3-3.53,7.67-.88,11.3,5.75,7.88,15.87,11.48,25.05,13.33,11.12,2.23,22.63,3.07,33.93,3.63a327.08,327.08,0,0,0,71.26-4.34,320.51,320.51,0,0,0,34.9-8c4.56-1.31,9.94-2.31,13.64-5.48a7,7,0,0,0,2.63-5.12,8.08,8.08,0,0,0-3.18-6,58.75,58.75,0,0,0-12.23-7.83,86.82,86.82,0,0,0-13.06-5.28,143.6,143.6,0,0,0-28.41-5.45c-19.88-2.08-40-1.78-59.75-5.41a125.3,125.3,0,0,1-14-3.39V31.2a346.35,346.35,0,0,1,81-7.38q11.52.32,23,1.39c1.92.18,1.91-2.82,0-3Z" transform="translate(-44 9.3)"/><path d="M450.36,36.28a32.13,32.13,0,0,0,9.13,36.18c4.82,4,11.07,7,17.41,7.3a10.61,10.61,0,0,0,8.64-3.33c2.18-2.46,3.27-5.67,4.12-8.79a53.75,53.75,0,0,0,.6-25.34c-.41-1.88-3.3-1.08-2.89.8a50.37,50.37,0,0,1,.23,20.17c-1,5.33-2.75,13.16-9.43,13.49-5.52.28-11.38-2.46-15.69-5.72a28.57,28.57,0,0,1-9.81-13.55,29.72,29.72,0,0,1,.59-20.41c.71-1.8-2.19-2.57-2.9-.8Z" transform="translate(-44 9.3)"/><path d="M490.79,69c1.28-9.79,10.28-15.77,18.21-20.19,8.92-5,18.48-9,25.66-16.5,6.9-7.22,11.24-18.15,7.51-27.95-3-8-11-12.79-19.34-13.58-9.12-.87-17.59,3.73-23,10.87-6.24,8.17-8.12,18.54-6.59,28.58C496,48.92,511,71.91,531.76,72.94c6.09.3,11.84-1.83,17.17-4.58A86.84,86.84,0,0,0,563.7,59c8-6.43,14.85-15.51,12.75-26.31l-2.74,1.16A104.1,104.1,0,0,0,605,61.23,99.83,99.83,0,0,0,614.54,66c3,1.3,6.28,2.94,9.57,3.32,7.57.87,8.83-7.23,10-12.82l6.31-29.17a1.5,1.5,0,0,0-2.89-.8C633.09,39.35,638.9,54,649.65,61.76c12,8.68,28,5.64,37.92-4.73a30.11,30.11,0,0,0,8.67-22c-.09-1.92-3-1.94-3,0a50.25,50.25,0,0,0,22.15,40.45c4.51,3,10.08,6,15.67,5.48,9.85-.87,15-11.15,19.36-18.7A70.7,70.7,0,0,1,809.74,27l-.4-2.95c-19.42,2.87-39.2,17.61-43.84,37.37-2,8.59-.52,19,8,23.54,8.05,4.25,18.3,1.24,24.76-4.54,9.17-8.19,11.24-21.59,13-33.09l-2.51.66c18.94,18,40,34.42,64.18,44.7,22.38,9.5,47.29,13.14,71.21,7.87a87.12,87.12,0,0,0,35.94-17c1.51-1.2-.63-3.32-2.12-2.12C959.43,96.3,935,101.54,911.73,99.57c-24.73-2.1-47.85-12.68-68.08-26.64a273.37,273.37,0,0,1-32.8-27.09c-.73-.7-2.33-.51-2.5.66C806.93,56,805.43,66,799.87,74c-4.73,6.86-13.9,11.7-22.3,9.32-9.25-2.62-11.1-12.94-9.17-21.15,2.05-8.73,7.67-16.51,14.27-22.42a52.72,52.72,0,0,1,27.47-12.85c1.68-.25,1.26-3-.4-3a74.15,74.15,0,0,0-54.4,26,84,84,0,0,0-8.51,12.48c-2.37,4.1-4.75,8.37-8.21,11.66-4.42,4.19-9.74,4.7-15.28,2.31A43.47,43.47,0,0,1,710,67.12,47.21,47.21,0,0,1,696.24,35h-3c.63,13.21-9.57,25.37-22.27,28.33s-24.45-5-29.47-16.31a26.81,26.81,0,0,1-1-19.7l-2.89-.8-6.11,28.23c-.69,3.2-1,9.34-4.25,11.17-2.28,1.28-5.29-.19-7.49-1q-3-1.14-5.83-2.47A100.59,100.59,0,0,1,576.3,32.3a1.51,1.51,0,0,0-2.74,1.16c1.77,9.14-4.24,16.88-10.83,22.45a72.37,72.37,0,0,1-11.21,7.63c-4.69,2.65-9.6,5.3-15,6.16-19.8,3.16-35-18.58-39.39-35.2-2.54-9.66-1.94-20.07,3.42-28.68,4.66-7.49,12.61-12.68,21.62-12.06,8.3.57,16.2,5.9,18,14.34,2.08,10-3.93,19.5-11.36,25.6C515.55,44.58,490.42,49,487.79,69c-.25,1.9,2.75,1.89,3,0Z" transform="translate(-44 9.3)"/><path d="M693.28,20.75c4.5,1.93,9,3.95,13.5,5.79,2.36,1,6.31,1.49,7.89-1.09,1-1.68.33-3.57-.75-5-1.19-1.61-2.43-3.2-3.75-4.7-2.59-2.93-5.77-5.6-9.63-6.59s-8.28-.35-11.19,2.6c-1.36,1.38.76,3.5,2.12,2.12a8.19,8.19,0,0,1,7.28-2,14.59,14.59,0,0,1,7.7,4.33,41,41,0,0,1,3.22,3.63c.52.66,1,1.32,1.55,2,.33.44,1.2,1.36.95,2s-1.32.56-1.83.54a9.52,9.52,0,0,1-3.46-1L694.8,18.16a1.55,1.55,0,0,0-2,.54,1.51,1.51,0,0,0,.53,2.05Z" transform="translate(-44 9.3)"/><path d="M446.69,11.94c2.08,0,3.89,1.22,5.76,2a7.74,7.74,0,0,0,4.89.43,4.9,4.9,0,0,0,3.5-2.82c.75-1.95-.33-3.74-1.46-5.27-2.27-3.06-4.75-6.27-8.2-8.08a9.4,9.4,0,0,0-9.87.2c-3.06,2-5,5.86-3.06,9.33a1.5,1.5,0,0,0,2.59-1.52c-1.1-1.93.26-4,1.87-5.15a6.37,6.37,0,0,1,7-.27A20.35,20.35,0,0,1,456,6.67c.44.58.88,1.16,1.3,1.75s1,1.24.82,1.92-1.25,1.1-1.93,1.2a7.07,7.07,0,0,1-4.06-1,12.15,12.15,0,0,0-5.4-1.55,1.5,1.5,0,0,0,0,3Z" transform="translate(-44 9.3)"/><rect class="cls-1" x="0.5" y="34.8" width="104" height="21"/><rect class="cls-1" x="1001.5" y="66.8" width="162" height="21"/></svg>